<?xml version="1.0" encoding="utf-8"?>
<!-- Generator: Adobe Illustrator 15.0.2, SVG Export Plug-In . SVG Version: 6.00 Build 0)  -->
<svg version="1.2" baseProfile="tiny" id="Layer_1" xmlns="http://www.w3.org/2000/svg" xmlns:xlink="http://www.w3.org/1999/xlink"
	 x="0px" y="0px" width="215.646px" height="59.662px" viewBox="0 0 215.646 59.662" overflow="inherit" xml:space="preserve">
<g>
	<path fill="#808080" d="M83.138,58.422c-1.734,0-2.872-1.008-2.872-2.514h0.954c0,1.008,0.78,1.636,1.918,1.636
		c1.29,0,1.918-0.542,1.918-1.387c0-0.628-0.282-1.062-1.94-1.344C81.447,54.52,80.494,54,80.494,52.71
		c0-1.291,1.029-2.125,2.623-2.125c1.648,0,2.667,0.889,2.667,2.341h-0.932c0-0.877-0.596-1.463-1.723-1.463
		c-1.16,0-1.702,0.51-1.702,1.214c0,0.651,0.347,0.975,1.886,1.257c1.648,0.314,2.667,0.781,2.667,2.222
		C85.978,57.631,84.818,58.422,83.138,58.422z"/>
	<path fill="#808080" d="M95.69,55.518c0,1.604-1.214,2.904-2.807,2.904c-1.583,0-2.807-1.3-2.807-2.904
		c0-1.626,1.225-2.948,2.807-2.948C94.477,52.569,95.69,53.892,95.69,55.518z M94.77,55.518c0-1.16-0.846-2.103-1.886-2.103
		c-1.029,0-1.875,0.943-1.875,2.103c0,1.138,0.846,2.06,1.875,2.06C93.924,57.577,94.77,56.656,94.77,55.518z"/>
	<path fill="#808080" d="M101.209,52.732h1.268v0.878h-1.268v4.683h-0.911V53.61H99.54v-0.878h0.759v-0.216
		c0-0.812,0.217-1.431,0.64-1.811c0.39-0.358,0.911-0.499,1.561-0.423v0.835c-0.422-0.033-0.726,0.043-0.942,0.249
		c-0.282,0.26-0.347,0.77-0.347,1.149V52.732z"/>
	<path fill="#808080" d="M109.209,58.292c-1.301,0.152-2.201-0.618-2.201-2.038v-2.667h-0.758V52.71h0.758v-1.193h0.911v1.193h1.268
		v0.878h-1.268v2.667c0,0.986,0.607,1.235,1.29,1.192V58.292z"/>
	<path fill="#808080" d="M118.51,56.905l1.181-4.195h0.965l-1.669,5.582h-0.965l-1.192-4.271l-1.192,4.271h-0.954l-1.669-5.582
		h0.965l1.192,4.195l1.191-4.195h0.955L118.51,56.905z"/>
	<path fill="#808080" d="M128.431,57.653c-0.401,0.487-1.052,0.769-1.919,0.769c-1.148,0-2.178-0.52-2.178-1.724
		c0-1.148,0.835-1.668,2.276-1.745c1.366-0.064,1.81-0.314,1.81-0.758c0-0.444-0.423-0.781-1.365-0.781
		c-0.586,0-1.356,0.185-1.453,0.998h-0.954c0.064-1.117,0.986-1.843,2.417-1.843c1.496,0,2.255,0.693,2.255,1.734v3.079
		c0,0.281,0.076,0.693,0.163,0.91h-0.911C128.496,58.13,128.442,57.914,128.431,57.653z M128.42,55.29
		c-0.369,0.324-1.029,0.401-1.691,0.444c-1.213,0.076-1.485,0.499-1.485,0.964c0,0.608,0.585,0.868,1.3,0.868
		c0.954,0,1.854-0.412,1.875-1.42V55.29z"/>
	<path fill="#808080" d="M136.845,53.491c-0.965-0.055-1.789,0.454-1.789,1.571v3.23h-0.922V52.71h0.889v0.628
		c0.423-0.596,1.181-0.834,1.821-0.759V53.491z"/>
	<path fill="#808080" d="M146.048,56.558c-0.391,1.192-1.345,1.864-2.634,1.864c-1.604,0-2.862-1.278-2.862-2.915
		c0-1.615,1.258-2.938,2.808-2.938c1.442,0,2.829,1.193,2.818,3.176h-4.693c0.119,1.16,1.007,1.842,1.929,1.842
		c0.791,0,1.355-0.378,1.659-1.029H146.048z M145.16,54.921c-0.228-0.91-0.987-1.517-1.799-1.517c-0.77,0-1.583,0.563-1.821,1.517
		H145.16z"/>
	<path fill="#808080" d="M158.018,58.292h-0.921V50.77h3.164c1.55,0,2.417,0.943,2.417,2.277c0,1.322-0.867,2.276-2.417,2.276
		h-2.243V58.292z M158.018,51.648v2.796h2.243c0.878,0,1.507-0.412,1.507-1.398s-0.628-1.398-1.507-1.398H158.018z"/>
	<path fill="#808080" d="M169.444,58.292h-0.985l-2.027-5.582h0.976l1.549,4.443l1.539-4.443h0.975L169.444,58.292z"/>
	<path fill="#808080" d="M178.192,58.292c-1.3,0.152-2.2-0.618-2.2-2.038v-2.667h-0.758V52.71h0.758v-1.193h0.911v1.193h1.268v0.878
		h-1.268v2.667c0,0.986,0.607,1.235,1.289,1.192V58.292z"/>
	<path fill="#808080" d="M180.61,58.292h-1.083v-1.117h1.083V58.292z"/>
	<path fill="#808080" d="M196.524,58.292h-4.79V50.77h0.921v6.634h3.869V58.292z"/>
	<path fill="#808080" d="M202.758,58.292c-1.3,0.152-2.2-0.618-2.2-2.038v-2.667h-0.758V52.71h0.758v-1.193h0.911v1.193h1.269v0.878
		h-1.269v2.667c0,0.986,0.607,1.235,1.29,1.192V58.292z"/>
	<path fill="#808080" d="M211.658,58.292h-0.889v-0.9c-0.39,0.575-1.105,1.041-1.929,1.041c-1.604,0-2.797-1.312-2.797-2.926
		c0-1.615,1.193-2.938,2.797-2.938c0.802,0,1.496,0.445,1.896,0.986v-3.327h0.921V58.292z M208.84,53.426
		c-1.051,0-1.875,0.932-1.875,2.092c0,1.138,0.824,2.07,1.875,2.07c1.029,0,1.896-0.932,1.896-2.07
		C210.737,54.357,209.87,53.426,208.84,53.426z"/>
	<path fill="#808080" d="M214.619,58.292h-1.084v-1.117h1.084V58.292z"/>
</g>
<g>
	<path fill="#1A1A1A" d="M46.197,20.544c-0.759,0-1.428,0.279-2.006,0.839c-0.579,0.558-0.868,1.237-0.868,2.035v10.658
		c0,0.718-0.11,1.477-0.33,2.275c-0.219,0.8-0.579,1.538-1.077,2.215c-0.5,0.681-1.179,1.239-2.036,1.678
		c-0.858,0.439-1.946,0.658-3.263,0.658H12.487c-0.838,0-1.627-0.119-2.365-0.358c-0.739-0.24-1.377-0.569-1.916-0.988
		c-0.54-0.42-0.968-0.877-1.288-1.378c-0.32-0.498-0.479-1.026-0.479-1.586c0-0.798-0.28-1.477-0.838-2.036
		c-0.56-0.559-1.238-0.837-2.036-0.837c-0.758,0-1.427,0.279-2.006,0.837c-0.579,0.56-0.868,1.238-0.868,2.036
		c0,1.278,0.27,2.524,0.808,3.742c0.539,1.217,1.267,2.296,2.186,3.233c0.918,0.938,1.986,1.687,3.203,2.244
		c1.218,0.561,2.504,0.84,3.862,0.84h27.063c1.716,0,3.273-0.399,4.671-1.198c1.396-0.798,2.584-1.826,3.562-3.084
		c0.978-1.257,1.726-2.654,2.246-4.191c0.518-1.536,0.779-3.062,0.779-4.581V23.418c0-0.798-0.28-1.477-0.839-2.035
		C47.673,20.824,46.995,20.544,46.197,20.544z"/>
	<path fill="#1A1A1A" d="M156.426,33.058c-0.72-0.718-1.567-1.287-2.545-1.706c-0.977-0.42-2.026-0.628-3.143-0.628h-33.113
		c-0.597,0-1.126-0.22-1.585-0.659c-0.46-0.439-0.689-0.958-0.689-1.557c0-0.638,0.229-1.168,0.689-1.586
		c0.458-0.419,0.988-0.629,1.585-0.629h36.465c0.798,0,1.477-0.279,2.035-0.839c0.558-0.558,0.839-1.237,0.839-2.036
		c0-0.798-0.281-1.477-0.839-2.035c-0.559-0.56-1.237-0.839-2.035-0.839h-36.345c-1.117,0-2.154,0.21-3.113,0.629
		c-0.957,0.42-1.796,0.989-2.514,1.707s-1.288,1.557-1.707,2.515c-0.42,0.958-0.628,1.996-0.628,3.112
		c0,1.118,0.208,2.156,0.628,3.114c0.419,0.958,0.988,1.795,1.707,2.515c0.718,0.718,1.558,1.286,2.514,1.707
		c0.959,0.417,1.996,0.627,3.113,0.627h33.232c0.597,0,1.116,0.22,1.557,0.659c0.438,0.439,0.658,0.979,0.658,1.616
		c0,0.598-0.22,1.108-0.658,1.527c-0.44,0.419-0.959,0.628-1.557,0.628h-36.524c-0.8,0-1.479,0.281-2.037,0.839
		c-0.56,0.56-0.838,1.237-0.838,2.035c0,0.8,0.278,1.478,0.838,2.035c0.558,0.561,1.237,0.84,2.037,0.84h36.284
		c1.117,0,2.166-0.2,3.143-0.599c0.978-0.398,1.826-0.958,2.545-1.676c0.719-0.718,1.287-1.558,1.707-2.516s0.627-1.996,0.627-3.113
		c0-1.117-0.208-2.164-0.627-3.143C157.713,34.626,157.145,33.778,156.426,33.058z"/>
	<path fill="#1A1A1A" d="M210.733,21.384c-0.562-0.56-1.239-0.839-2.037-0.839c-0.799,0-1.477,0.279-2.037,0.839
		c-0.559,0.558-0.837,1.237-0.837,2.035v9.222c-1.119-0.638-2.306-1.118-3.562-1.438c-1.258-0.318-2.506-0.478-3.742-0.478h-10.179
		h-0.18h-0.061H177.74c-0.718,0-1.497-0.09-2.334-0.27c-0.839-0.179-1.628-0.499-2.365-0.958c-0.738-0.458-1.356-1.097-1.856-1.916
		c-0.5-0.818-0.749-1.865-0.749-3.143v-1.019c0-0.798-0.279-1.477-0.837-2.035c-0.562-0.56-1.239-0.839-2.037-0.839
		c-0.8,0-1.477,0.279-2.037,0.839c-0.559,0.558-0.837,1.237-0.837,2.035v20.357c0,0.8,0.279,1.478,0.837,2.035
		c0.56,0.561,1.237,0.84,2.037,0.84c0.798,0,1.476-0.279,2.037-0.84c0.558-0.558,0.837-1.235,0.837-2.035v-9.221
		c1.118,0.639,2.305,1.118,3.562,1.438c1.258,0.319,2.504,0.478,3.742,0.478h10.18h0.24h0.18h10.179c0.678,0,1.437,0.082,2.275,0.24
		c0.837,0.16,1.616,0.46,2.336,0.897c0.718,0.441,1.337,1.049,1.856,1.828c0.517,0.778,0.796,1.766,0.837,2.963v1.377
		c0,0.8,0.279,1.478,0.837,2.035c0.56,0.561,1.237,0.84,2.037,0.84c0.798,0,1.475-0.279,2.037-0.84
		c0.558-0.558,0.837-1.235,0.837-2.035V23.418C211.57,22.621,211.291,21.942,210.733,21.384z"/>
	<g>
		<path fill="#1A1A1A" d="M103.077,29.107c-0.479-1.517-1.167-2.894-2.065-4.131c-0.898-1.237-1.986-2.264-3.263-3.083
			c-1.278-0.818-2.735-1.268-4.371-1.348H90.42l-4.208,5.749h5.309c1.356,0,2.475,0.249,3.353,0.748
			c0.878,0.5,1.567,1.108,2.066,1.826c0.499,0.719,0.838,1.507,1.018,2.366c0.18,0.858,0.27,1.646,0.27,2.364
			c0,0.72-0.09,1.507-0.27,2.366c-0.179,0.858-0.519,1.646-1.018,2.366c-0.5,0.718-1.188,1.328-2.066,1.826
			c-0.878,0.5-1.996,0.748-3.353,0.748H67.332c-1.398,0-2.525-0.249-3.383-0.748c-0.858-0.498-1.536-1.107-2.035-1.826
			c-0.5-0.72-0.839-1.507-1.018-2.366c-0.18-0.858-0.27-1.646-0.27-2.366c0-0.718,0.089-1.506,0.27-2.364
			c0.179-0.859,0.518-1.646,1.018-2.366c0.499-0.718,1.177-1.326,2.035-1.826c0.858-0.499,1.985-0.748,3.383-0.748h6.608
			l-4.254-5.749h-3.611c-1.717,0-3.253,0.4-4.611,1.198s-2.514,1.825-3.472,3.084c-0.958,1.257-1.687,2.654-2.186,4.191
			c-0.5,1.537-0.748,3.063-0.748,4.579c0,1.479,0.239,2.976,0.718,4.492c0.479,1.518,1.168,2.894,2.065,4.131
			c0.898,1.239,1.985,2.266,3.264,3.084c1.277,0.819,2.734,1.267,4.371,1.348h27.303c1.716,0,3.253-0.399,4.61-1.198
			c1.356-0.798,2.516-1.826,3.474-3.084c0.958-1.257,1.685-2.654,2.185-4.191c0.499-1.536,0.749-3.062,0.749-4.581
			C103.796,32.121,103.556,30.625,103.077,29.107z"/>
		<polygon fill="#EF4135" points="80.031,31.678 86.909,22.509 73.153,22.509 		"/>
		<polygon fill="#7A1600" points="81.244,10.94 88.372,20.544 88.378,20.552 88.384,20.544 95.494,11.089 88.236,1.493 		"/>
		<polygon fill="#B32317" points="80.087,12.337 73.721,20.813 86.452,20.813 		"/>
		<polygon fill="#EF4135" points="71.801,20.544 86.771,0.614 72.115,0.614 64.674,11.207 		"/>
	</g>
</g>
</svg>
