<?xml version="1.0" standalone="no"?>
<!DOCTYPE svg PUBLIC "-//W3C//DTD SVG 1.1//EN" "http://www.w3.org/Graphics/SVG/1.1/DTD/svg11.dtd" >
<svg xmlns="http://www.w3.org/2000/svg">
<metadata></metadata>
<defs>
<font id="brailleregular" horiz-adv-x="1894" >
<font-face units-per-em="2048" ascent="1638" descent="-410" />
<missing-glyph horiz-adv-x="2552" />
<glyph horiz-adv-x="2048" />
<glyph horiz-adv-x="2048" />
<glyph unicode="&#xd;" horiz-adv-x="2048" />
<glyph unicode=" "  horiz-adv-x="2552" />
<glyph unicode="&#x09;" horiz-adv-x="2552" />
<glyph unicode="&#xa0;" horiz-adv-x="2552" />
<glyph unicode="!" d="M0 241q0 97 71.5 170t166.5 73q92 0 156 -68t64 -170q0 -105 -67.5 -175.5t-160.5 -70.5q-92 0 -161 72t-69 169zM0 942q0 97 71.5 169t166.5 72q92 0 156 -69.5t64 -171.5t-67.5 -172.5t-160.5 -70.5q-92 0 -161 71.5t-69 171.5zM655 942q0 97 70.5 169t165.5 72 q92 0 156 -69.5t64 -171.5t-66.5 -172.5t-163.5 -70.5q-92 0 -159 71.5t-67 171.5z" />
<glyph unicode="&#x22;" d="M0 241q0 97 71.5 170t166.5 73q92 0 156 -68t64 -170q0 -105 -67.5 -175.5t-160.5 -70.5q-92 0 -161 72t-69 169zM655 241q0 97 70.5 170t165.5 73q92 0 156 -68t64 -170q0 -105 -66.5 -175.5t-163.5 -70.5q-92 0 -159 72t-67 169zM655 942q0 97 70.5 169t165.5 72 q92 0 156 -69.5t64 -171.5t-66.5 -172.5t-163.5 -70.5q-92 0 -159 71.5t-67 171.5z" />
<glyph unicode="'" d="M0 241q0 97 71.5 170t166.5 73q92 0 156 -68t64 -170q0 -105 -67.5 -175.5t-160.5 -70.5q-92 0 -161 72t-69 169z" />
<glyph unicode="(" d="M0 241q0 97 71.5 170t166.5 73q92 0 156 -68t64 -170q0 -105 -67.5 -175.5t-160.5 -70.5q-92 0 -161 72t-69 169zM0 942q0 97 71.5 169t166.5 72q92 0 156 -69.5t64 -171.5t-67.5 -172.5t-160.5 -70.5q-92 0 -161 71.5t-69 171.5zM655 241q0 97 70.5 170t165.5 73 q92 0 156 -68t64 -170q0 -105 -66.5 -175.5t-163.5 -70.5q-92 0 -159 72t-67 169zM655 942q0 97 70.5 169t165.5 72q92 0 156 -69.5t64 -171.5t-66.5 -172.5t-163.5 -70.5q-92 0 -159 71.5t-67 171.5z" />
<glyph unicode=")" d="M0 241q0 97 71.5 170t166.5 73q92 0 156 -68t64 -170q0 -105 -67.5 -175.5t-160.5 -70.5q-92 0 -161 72t-69 169zM0 942q0 97 71.5 169t166.5 72q92 0 156 -69.5t64 -171.5t-67.5 -172.5t-160.5 -70.5q-92 0 -161 71.5t-69 171.5zM655 241q0 97 70.5 170t165.5 73 q92 0 156 -68t64 -170q0 -105 -66.5 -175.5t-163.5 -70.5q-92 0 -159 72t-67 169zM655 942q0 97 70.5 169t165.5 72q92 0 156 -69.5t64 -171.5t-66.5 -172.5t-163.5 -70.5q-92 0 -159 71.5t-67 171.5z" />
<glyph unicode="*" d="M0 241q0 97 71.5 170t166.5 73q92 0 156 -68t64 -170q0 -105 -67.5 -175.5t-160.5 -70.5q-92 0 -161 72t-69 169zM655 942q0 97 70.5 169t165.5 72q92 0 156 -69.5t64 -171.5t-66.5 -172.5t-163.5 -70.5q-92 0 -159 71.5t-67 171.5z" />
<glyph unicode="," d="M0 942q0 97 71.5 169t166.5 72q92 0 156 -69.5t64 -171.5t-67.5 -172.5t-160.5 -70.5q-92 0 -161 71.5t-69 171.5z" />
<glyph unicode="-" d="M0 241q0 97 71.5 170t166.5 73q92 0 156 -68t64 -170q0 -105 -67.5 -175.5t-160.5 -70.5q-92 0 -161 72t-69 169zM655 241q0 97 70.5 170t165.5 73q92 0 156 -68t64 -170q0 -105 -66.5 -175.5t-163.5 -70.5q-92 0 -159 72t-67 169z" />
<glyph unicode="." d="M0 942q0 97 71.5 169t166.5 72q92 0 156 -69.5t64 -171.5t-67.5 -172.5t-160.5 -70.5q-92 0 -161 71.5t-69 171.5zM655 241q0 97 70.5 170t165.5 73q92 0 156 -68t64 -170q0 -105 -66.5 -175.5t-163.5 -70.5q-92 0 -159 72t-67 169zM655 942q0 97 70.5 169t165.5 72 q92 0 156 -69.5t64 -171.5t-66.5 -172.5t-163.5 -70.5q-92 0 -159 71.5t-67 171.5z" />
<glyph unicode="0" horiz-adv-x="3786" d="M0 241q0 97 71.5 170t166.5 73q92 0 156 -68t64 -170q0 -105 -67.5 -175.5t-160.5 -70.5q-92 0 -161 72t-69 169zM655 241q0 97 70.5 170t165.5 73q92 0 156 -68t64 -170q0 -105 -66.5 -175.5t-163.5 -70.5q-92 0 -159 72t-67 169zM655 942q0 97 70.5 169t165.5 72 q92 0 156 -69.5t64 -171.5t-66.5 -172.5t-163.5 -70.5q-92 0 -159 71.5t-67 171.5zM655 1638q0 97 70.5 169t165.5 72q92 0 156 -68t64 -170q0 -105 -66.5 -174t-163.5 -69q-92 0 -159 71.5t-67 168.5zM1894 942q0 97 72 169t166 72q92 0 156.5 -69.5t64.5 -171.5 t-68 -172.5t-160 -70.5t-161.5 71.5t-69.5 171.5zM2550 942q0 97 70.5 169t164.5 72q92 0 156 -69.5t64 -171.5t-66.5 -172.5t-163.5 -70.5q-92 0 -158.5 71.5t-66.5 171.5zM2550 1638q0 97 70.5 169t164.5 72q92 0 156 -68t64 -170q0 -105 -66.5 -174t-163.5 -69 q-92 0 -158.5 71.5t-66.5 168.5z" />
<glyph unicode="1" horiz-adv-x="3786" d="M0 241q0 97 71.5 170t166.5 73q92 0 156 -68t64 -170q0 -105 -67.5 -175.5t-160.5 -70.5q-92 0 -161 72t-69 169zM655 241q0 97 70.5 170t165.5 73q92 0 156 -68t64 -170q0 -105 -66.5 -175.5t-163.5 -70.5q-92 0 -159 72t-67 169zM655 942q0 97 70.5 169t165.5 72 q92 0 156 -69.5t64 -171.5t-66.5 -172.5t-163.5 -70.5q-92 0 -159 71.5t-67 171.5zM655 1638q0 97 70.5 169t165.5 72q92 0 156 -68t64 -170q0 -105 -66.5 -174t-163.5 -69q-92 0 -159 71.5t-67 168.5zM1894 1638q0 97 72 169t166 72q92 0 156.5 -68t64.5 -170 q0 -105 -68 -174t-160 -69t-161.5 71.5t-69.5 168.5z" />
<glyph unicode="2" horiz-adv-x="3786" d="M0 241q0 97 71.5 170t166.5 73q92 0 156 -68t64 -170q0 -105 -67.5 -175.5t-160.5 -70.5q-92 0 -161 72t-69 169zM655 241q0 97 70.5 170t165.5 73q92 0 156 -68t64 -170q0 -105 -66.5 -175.5t-163.5 -70.5q-92 0 -159 72t-67 169zM655 942q0 97 70.5 169t165.5 72 q92 0 156 -69.5t64 -171.5t-66.5 -172.5t-163.5 -70.5q-92 0 -159 71.5t-67 171.5zM655 1638q0 97 70.5 169t165.5 72q92 0 156 -68t64 -170q0 -105 -66.5 -174t-163.5 -69q-92 0 -159 71.5t-67 168.5zM1894 942q0 97 72 169t166 72q92 0 156.5 -69.5t64.5 -171.5 t-68 -172.5t-160 -70.5t-161.5 71.5t-69.5 171.5zM1894 1638q0 97 72 169t166 72q92 0 156.5 -68t64.5 -170q0 -105 -68 -174t-160 -69t-161.5 71.5t-69.5 168.5z" />
<glyph unicode="3" horiz-adv-x="3786" d="M0 241q0 97 71.5 170t166.5 73q92 0 156 -68t64 -170q0 -105 -67.5 -175.5t-160.5 -70.5q-92 0 -161 72t-69 169zM655 241q0 97 70.5 170t165.5 73q92 0 156 -68t64 -170q0 -105 -66.5 -175.5t-163.5 -70.5q-92 0 -159 72t-67 169zM655 942q0 97 70.5 169t165.5 72 q92 0 156 -69.5t64 -171.5t-66.5 -172.5t-163.5 -70.5q-92 0 -159 71.5t-67 171.5zM655 1638q0 97 70.5 169t165.5 72q92 0 156 -68t64 -170q0 -105 -66.5 -174t-163.5 -69q-92 0 -159 71.5t-67 168.5zM1894 1638q0 97 72 169t166 72q92 0 156.5 -68t64.5 -170 q0 -105 -68 -174t-160 -69t-161.5 71.5t-69.5 168.5zM2550 1638q0 97 70.5 169t164.5 72q92 0 156 -68t64 -170q0 -105 -66.5 -174t-163.5 -69q-92 0 -158.5 71.5t-66.5 168.5z" />
<glyph unicode="4" horiz-adv-x="3786" d="M0 241q0 97 71.5 170t166.5 73q92 0 156 -68t64 -170q0 -105 -67.5 -175.5t-160.5 -70.5q-92 0 -161 72t-69 169zM655 241q0 97 70.5 170t165.5 73q92 0 156 -68t64 -170q0 -105 -66.5 -175.5t-163.5 -70.5q-92 0 -159 72t-67 169zM655 942q0 97 70.5 169t165.5 72 q92 0 156 -69.5t64 -171.5t-66.5 -172.5t-163.5 -70.5q-92 0 -159 71.5t-67 171.5zM655 1638q0 97 70.5 169t165.5 72q92 0 156 -68t64 -170q0 -105 -66.5 -174t-163.5 -69q-92 0 -159 71.5t-67 168.5zM1894 1638q0 97 72 169t166 72q92 0 156.5 -68t64.5 -170 q0 -105 -68 -174t-160 -69t-161.5 71.5t-69.5 168.5zM2550 942q0 97 70.5 169t164.5 72q92 0 156 -69.5t64 -171.5t-66.5 -172.5t-163.5 -70.5q-92 0 -158.5 71.5t-66.5 171.5zM2550 1638q0 97 70.5 169t164.5 72q92 0 156 -68t64 -170q0 -105 -66.5 -174t-163.5 -69 q-92 0 -158.5 71.5t-66.5 168.5z" />
<glyph unicode="5" horiz-adv-x="3786" d="M0 241q0 97 71.5 170t166.5 73q92 0 156 -68t64 -170q0 -105 -67.5 -175.5t-160.5 -70.5q-92 0 -161 72t-69 169zM655 241q0 97 70.5 170t165.5 73q92 0 156 -68t64 -170q0 -105 -66.5 -175.5t-163.5 -70.5q-92 0 -159 72t-67 169zM655 942q0 97 70.5 169t165.5 72 q92 0 156 -69.5t64 -171.5t-66.5 -172.5t-163.5 -70.5q-92 0 -159 71.5t-67 171.5zM655 1638q0 97 70.5 169t165.5 72q92 0 156 -68t64 -170q0 -105 -66.5 -174t-163.5 -69q-92 0 -159 71.5t-67 168.5zM1894 1638q0 97 72 169t166 72q92 0 156.5 -68t64.5 -170 q0 -105 -68 -174t-160 -69t-161.5 71.5t-69.5 168.5zM2550 942q0 97 70.5 169t164.5 72q92 0 156 -69.5t64 -171.5t-66.5 -172.5t-163.5 -70.5q-92 0 -158.5 71.5t-66.5 171.5z" />
<glyph unicode="6" horiz-adv-x="3786" d="M0 241q0 97 71.5 170t166.5 73q92 0 156 -68t64 -170q0 -105 -67.5 -175.5t-160.5 -70.5q-92 0 -161 72t-69 169zM655 241q0 97 70.5 170t165.5 73q92 0 156 -68t64 -170q0 -105 -66.5 -175.5t-163.5 -70.5q-92 0 -159 72t-67 169zM655 942q0 97 70.5 169t165.5 72 q92 0 156 -69.5t64 -171.5t-66.5 -172.5t-163.5 -70.5q-92 0 -159 71.5t-67 171.5zM655 1638q0 97 70.5 169t165.5 72q92 0 156 -68t64 -170q0 -105 -66.5 -174t-163.5 -69q-92 0 -159 71.5t-67 168.5zM1894 942q0 97 72 169t166 72q92 0 156.5 -69.5t64.5 -171.5 t-68 -172.5t-160 -70.5t-161.5 71.5t-69.5 171.5zM1894 1638q0 97 72 169t166 72q92 0 156.5 -68t64.5 -170q0 -105 -68 -174t-160 -69t-161.5 71.5t-69.5 168.5zM2550 1638q0 97 70.5 169t164.5 72q92 0 156 -68t64 -170q0 -105 -66.5 -174t-163.5 -69q-92 0 -158.5 71.5 t-66.5 168.5z" />
<glyph unicode="7" horiz-adv-x="3786" d="M0 241q0 97 71.5 170t166.5 73q92 0 156 -68t64 -170q0 -105 -67.5 -175.5t-160.5 -70.5q-92 0 -161 72t-69 169zM655 241q0 97 70.5 170t165.5 73q92 0 156 -68t64 -170q0 -105 -66.5 -175.5t-163.5 -70.5q-92 0 -159 72t-67 169zM655 942q0 97 70.5 169t165.5 72 q92 0 156 -69.5t64 -171.5t-66.5 -172.5t-163.5 -70.5q-92 0 -159 71.5t-67 171.5zM655 1638q0 97 70.5 169t165.5 72q92 0 156 -68t64 -170q0 -105 -66.5 -174t-163.5 -69q-92 0 -159 71.5t-67 168.5zM1894 942q0 97 72 169t166 72q92 0 156.5 -69.5t64.5 -171.5 t-68 -172.5t-160 -70.5t-161.5 71.5t-69.5 171.5zM1894 1638q0 97 72 169t166 72q92 0 156.5 -68t64.5 -170q0 -105 -68 -174t-160 -69t-161.5 71.5t-69.5 168.5zM2550 942q0 97 70.5 169t164.5 72q92 0 156 -69.5t64 -171.5t-66.5 -172.5t-163.5 -70.5q-92 0 -158.5 71.5 t-66.5 171.5zM2550 1638q0 97 70.5 169t164.5 72q92 0 156 -68t64 -170q0 -105 -66.5 -174t-163.5 -69q-92 0 -158.5 71.5t-66.5 168.5z" />
<glyph unicode="8" horiz-adv-x="3786" d="M0 241q0 97 71.5 170t166.5 73q92 0 156 -68t64 -170q0 -105 -67.5 -175.5t-160.5 -70.5q-92 0 -161 72t-69 169zM655 241q0 97 70.5 170t165.5 73q92 0 156 -68t64 -170q0 -105 -66.5 -175.5t-163.5 -70.5q-92 0 -159 72t-67 169zM655 942q0 97 70.5 169t165.5 72 q92 0 156 -69.5t64 -171.5t-66.5 -172.5t-163.5 -70.5q-92 0 -159 71.5t-67 171.5zM655 1638q0 97 70.5 169t165.5 72q92 0 156 -68t64 -170q0 -105 -66.5 -174t-163.5 -69q-92 0 -159 71.5t-67 168.5zM1894 942q0 97 72 169t166 72q92 0 156.5 -69.5t64.5 -171.5 t-68 -172.5t-160 -70.5t-161.5 71.5t-69.5 171.5zM1894 1638q0 97 72 169t166 72q92 0 156.5 -68t64.5 -170q0 -105 -68 -174t-160 -69t-161.5 71.5t-69.5 168.5zM2550 942q0 97 70.5 169t164.5 72q92 0 156 -69.5t64 -171.5t-66.5 -172.5t-163.5 -70.5q-92 0 -158.5 71.5 t-66.5 171.5z" />
<glyph unicode="9" horiz-adv-x="3786" d="M0 241q0 97 71.5 170t166.5 73q92 0 156 -68t64 -170q0 -105 -67.5 -175.5t-160.5 -70.5q-92 0 -161 72t-69 169zM655 241q0 97 70.5 170t165.5 73q92 0 156 -68t64 -170q0 -105 -66.5 -175.5t-163.5 -70.5q-92 0 -159 72t-67 169zM655 942q0 97 70.5 169t165.5 72 q92 0 156 -69.5t64 -171.5t-66.5 -172.5t-163.5 -70.5q-92 0 -159 71.5t-67 171.5zM655 1638q0 97 70.5 169t165.5 72q92 0 156 -68t64 -170q0 -105 -66.5 -174t-163.5 -69q-92 0 -159 71.5t-67 168.5zM1894 942q0 97 72 169t166 72q92 0 156.5 -69.5t64.5 -171.5 t-68 -172.5t-160 -70.5t-161.5 71.5t-69.5 171.5zM2550 1638q0 97 70.5 169t164.5 72q92 0 156 -68t64 -170q0 -105 -66.5 -174t-163.5 -69q-92 0 -158.5 71.5t-66.5 168.5z" />
<glyph unicode=":" d="M0 942q0 97 71.5 169t166.5 72q92 0 156 -69.5t64 -171.5t-67.5 -172.5t-160.5 -70.5q-92 0 -161 71.5t-69 171.5zM655 942q0 97 70.5 169t165.5 72q92 0 156 -69.5t64 -171.5t-66.5 -172.5t-163.5 -70.5q-92 0 -159 71.5t-67 171.5z" />
<glyph unicode=";" d="M0 241q0 97 71.5 170t166.5 73q92 0 156 -68t64 -170q0 -105 -67.5 -175.5t-160.5 -70.5q-92 0 -161 72t-69 169zM0 942q0 97 71.5 169t166.5 72q92 0 156 -69.5t64 -171.5t-67.5 -172.5t-160.5 -70.5q-92 0 -161 71.5t-69 171.5z" />
<glyph unicode="?" d="M0 942q0 97 71.5 169t166.5 72q92 0 156 -69.5t64 -171.5t-67.5 -172.5t-160.5 -70.5q-92 0 -161 71.5t-69 171.5zM655 241q0 97 70.5 170t165.5 73q92 0 156 -68t64 -170q0 -105 -66.5 -175.5t-163.5 -70.5q-92 0 -159 72t-67 169z" />
<glyph unicode="A" horiz-adv-x="4441" d="M655 241q0 97 70.5 170t165.5 73q92 0 156 -68t64 -170q0 -105 -66.5 -175.5t-163.5 -70.5q-92 0 -159 72t-67 169zM1894 1638q0 97 72 169t166 72q92 0 156.5 -68t64.5 -170q0 -105 -68 -174t-160 -69t-161.5 71.5t-69.5 168.5z" />
<glyph unicode="B" horiz-adv-x="4441" d="M655 241q0 97 70.5 170t165.5 73q92 0 156 -68t64 -170q0 -105 -66.5 -175.5t-163.5 -70.5q-92 0 -159 72t-67 169zM1894 942q0 97 72 169t166 72q92 0 156.5 -69.5t64.5 -171.5t-68 -172.5t-160 -70.5t-161.5 71.5t-69.5 171.5zM1894 1638q0 97 72 169t166 72 q92 0 156.5 -68t64.5 -170q0 -105 -68 -174t-160 -69t-161.5 71.5t-69.5 168.5z" />
<glyph unicode="C" horiz-adv-x="4441" d="M655 241q0 97 70.5 170t165.5 73q92 0 156 -68t64 -170q0 -105 -66.5 -175.5t-163.5 -70.5q-92 0 -159 72t-67 169zM1894 1638q0 97 72 169t166 72q92 0 156.5 -68t64.5 -170q0 -105 -68 -174t-160 -69t-161.5 71.5t-69.5 168.5zM2550 1638q0 97 70.5 169t164.5 72 q92 0 156 -68t64 -170q0 -105 -66.5 -174t-163.5 -69q-92 0 -158.5 71.5t-66.5 168.5z" />
<glyph unicode="D" horiz-adv-x="4441" d="M655 241q0 97 70.5 170t165.5 73q92 0 156 -68t64 -170q0 -105 -66.5 -175.5t-163.5 -70.5q-92 0 -159 72t-67 169zM1894 1638q0 97 72 169t166 72q92 0 156.5 -68t64.5 -170q0 -105 -68 -174t-160 -69t-161.5 71.5t-69.5 168.5zM2550 942q0 97 70.5 169t164.5 72 q92 0 156 -69.5t64 -171.5t-66.5 -172.5t-163.5 -70.5q-92 0 -158.5 71.5t-66.5 171.5zM2550 1638q0 97 70.5 169t164.5 72q92 0 156 -68t64 -170q0 -105 -66.5 -174t-163.5 -69q-92 0 -158.5 71.5t-66.5 168.5z" />
<glyph unicode="E" horiz-adv-x="4441" d="M655 241q0 97 70.5 170t165.5 73q92 0 156 -68t64 -170q0 -105 -66.5 -175.5t-163.5 -70.5q-92 0 -159 72t-67 169zM1894 1638q0 97 72 169t166 72q92 0 156.5 -68t64.5 -170q0 -105 -68 -174t-160 -69t-161.5 71.5t-69.5 168.5zM2550 942q0 97 70.5 169t164.5 72 q92 0 156 -69.5t64 -171.5t-66.5 -172.5t-163.5 -70.5q-92 0 -158.5 71.5t-66.5 171.5z" />
<glyph unicode="F" horiz-adv-x="4441" d="M655 241q0 97 70.5 170t165.5 73q92 0 156 -68t64 -170q0 -105 -66.5 -175.5t-163.5 -70.5q-92 0 -159 72t-67 169zM1894 942q0 97 72 169t166 72q92 0 156.5 -69.5t64.5 -171.5t-68 -172.5t-160 -70.5t-161.5 71.5t-69.5 171.5zM1894 1638q0 97 72 169t166 72 q92 0 156.5 -68t64.5 -170q0 -105 -68 -174t-160 -69t-161.5 71.5t-69.5 168.5zM2550 1638q0 97 70.5 169t164.5 72q92 0 156 -68t64 -170q0 -105 -66.5 -174t-163.5 -69q-92 0 -158.5 71.5t-66.5 168.5z" />
<glyph unicode="G" horiz-adv-x="4441" d="M655 241q0 97 70.5 170t165.5 73q92 0 156 -68t64 -170q0 -105 -66.5 -175.5t-163.5 -70.5q-92 0 -159 72t-67 169zM1894 942q0 97 72 169t166 72q92 0 156.5 -69.5t64.5 -171.5t-68 -172.5t-160 -70.5t-161.5 71.5t-69.5 171.5zM1894 1638q0 97 72 169t166 72 q92 0 156.5 -68t64.5 -170q0 -105 -68 -174t-160 -69t-161.5 71.5t-69.5 168.5zM2550 942q0 97 70.5 169t164.5 72q92 0 156 -69.5t64 -171.5t-66.5 -172.5t-163.5 -70.5q-92 0 -158.5 71.5t-66.5 171.5zM2550 1638q0 97 70.5 169t164.5 72q92 0 156 -68t64 -170 q0 -105 -66.5 -174t-163.5 -69q-92 0 -158.5 71.5t-66.5 168.5z" />
<glyph unicode="H" horiz-adv-x="4441" d="M655 241q0 97 70.5 170t165.5 73q92 0 156 -68t64 -170q0 -105 -66.5 -175.5t-163.5 -70.5q-92 0 -159 72t-67 169zM1894 942q0 97 72 169t166 72q92 0 156.5 -69.5t64.5 -171.5t-68 -172.5t-160 -70.5t-161.5 71.5t-69.5 171.5zM1894 1638q0 97 72 169t166 72 q92 0 156.5 -68t64.5 -170q0 -105 -68 -174t-160 -69t-161.5 71.5t-69.5 168.5zM2550 942q0 97 70.5 169t164.5 72q92 0 156 -69.5t64 -171.5t-66.5 -172.5t-163.5 -70.5q-92 0 -158.5 71.5t-66.5 171.5z" />
<glyph unicode="I" horiz-adv-x="4441" d="M655 241q0 97 70.5 170t165.5 73q92 0 156 -68t64 -170q0 -105 -66.5 -175.5t-163.5 -70.5q-92 0 -159 72t-67 169zM1894 942q0 97 72 169t166 72q92 0 156.5 -69.5t64.5 -171.5t-68 -172.5t-160 -70.5t-161.5 71.5t-69.5 171.5zM2550 1638q0 97 70.5 169t164.5 72 q92 0 156 -68t64 -170q0 -105 -66.5 -174t-163.5 -69q-92 0 -158.5 71.5t-66.5 168.5z" />
<glyph unicode="J" horiz-adv-x="4441" d="M655 241q0 97 70.5 170t165.5 73q92 0 156 -68t64 -170q0 -105 -66.5 -175.5t-163.5 -70.5q-92 0 -159 72t-67 169zM1894 942q0 97 72 169t166 72q92 0 156.5 -69.5t64.5 -171.5t-68 -172.5t-160 -70.5t-161.5 71.5t-69.5 171.5zM2550 942q0 97 70.5 169t164.5 72 q92 0 156 -69.5t64 -171.5t-66.5 -172.5t-163.5 -70.5q-92 0 -158.5 71.5t-66.5 171.5zM2550 1638q0 97 70.5 169t164.5 72q92 0 156 -68t64 -170q0 -105 -66.5 -174t-163.5 -69q-92 0 -158.5 71.5t-66.5 168.5z" />
<glyph unicode="K" horiz-adv-x="4441" d="M655 241q0 97 70.5 170t165.5 73q92 0 156 -68t64 -170q0 -105 -66.5 -175.5t-163.5 -70.5q-92 0 -159 72t-67 169zM1894 243q0 97 72 170t166 73q92 0 156.5 -69t64.5 -171t-68 -174t-160 -72t-161.5 71.5t-69.5 171.5zM1894 1638q0 97 72 169t166 72q92 0 156.5 -68 t64.5 -170q0 -105 -68 -174t-160 -69t-161.5 71.5t-69.5 168.5z" />
<glyph unicode="L" horiz-adv-x="4441" d="M655 241q0 97 70.5 170t165.5 73q92 0 156 -68t64 -170q0 -105 -66.5 -175.5t-163.5 -70.5q-92 0 -159 72t-67 169zM1894 243q0 97 72 170t166 73q92 0 156.5 -69t64.5 -171t-68 -174t-160 -72t-161.5 71.5t-69.5 171.5zM1894 942q0 97 72 169t166 72q92 0 156.5 -69.5 t64.5 -171.5t-68 -172.5t-160 -70.5t-161.5 71.5t-69.5 171.5zM1894 1638q0 97 72 169t166 72q92 0 156.5 -68t64.5 -170q0 -105 -68 -174t-160 -69t-161.5 71.5t-69.5 168.5z" />
<glyph unicode="M" horiz-adv-x="4441" d="M655 241q0 97 70.5 170t165.5 73q92 0 156 -68t64 -170q0 -105 -66.5 -175.5t-163.5 -70.5q-92 0 -159 72t-67 169zM1894 243q0 97 72 170t166 73q92 0 156.5 -69t64.5 -171t-68 -174t-160 -72t-161.5 71.5t-69.5 171.5zM1894 1638q0 97 72 169t166 72q92 0 156.5 -68 t64.5 -170q0 -105 -68 -174t-160 -69t-161.5 71.5t-69.5 168.5zM2550 1638q0 97 70.5 169t164.5 72q92 0 156 -68t64 -170q0 -105 -66.5 -174t-163.5 -69q-92 0 -158.5 71.5t-66.5 168.5z" />
<glyph unicode="N" horiz-adv-x="4441" d="M655 241q0 97 70.5 170t165.5 73q92 0 156 -68t64 -170q0 -105 -66.5 -175.5t-163.5 -70.5q-92 0 -159 72t-67 169zM1894 243q0 97 72 170t166 73q92 0 156.5 -69t64.5 -171t-68 -174t-160 -72t-161.5 71.5t-69.5 171.5zM1894 1638q0 97 72 169t166 72q92 0 156.5 -68 t64.5 -170q0 -105 -68 -174t-160 -69t-161.5 71.5t-69.5 168.5zM2550 942q0 97 70.5 169t164.5 72q92 0 156 -69.5t64 -171.5t-66.5 -172.5t-163.5 -70.5q-92 0 -158.5 71.5t-66.5 171.5zM2550 1638q0 97 70.5 169t164.5 72q92 0 156 -68t64 -170q0 -105 -66.5 -174 t-163.5 -69q-92 0 -158.5 71.5t-66.5 168.5z" />
<glyph unicode="O" horiz-adv-x="4441" d="M655 241q0 97 70.5 170t165.5 73q92 0 156 -68t64 -170q0 -105 -66.5 -175.5t-163.5 -70.5q-92 0 -159 72t-67 169zM1894 243q0 97 72 170t166 73q92 0 156.5 -69t64.5 -171t-68 -174t-160 -72t-161.5 71.5t-69.5 171.5zM1894 1638q0 97 72 169t166 72q92 0 156.5 -68 t64.5 -170q0 -105 -68 -174t-160 -69t-161.5 71.5t-69.5 168.5zM2550 942q0 97 70.5 169t164.5 72q92 0 156 -69.5t64 -171.5t-66.5 -172.5t-163.5 -70.5q-92 0 -158.5 71.5t-66.5 171.5z" />
<glyph unicode="P" horiz-adv-x="4441" d="M655 241q0 97 70.5 170t165.5 73q92 0 156 -68t64 -170q0 -105 -66.5 -175.5t-163.5 -70.5q-92 0 -159 72t-67 169zM1894 243q0 97 72 170t166 73q92 0 156.5 -69t64.5 -171t-68 -174t-160 -72t-161.5 71.5t-69.5 171.5zM1894 942q0 97 72 169t166 72q92 0 156.5 -69.5 t64.5 -171.5t-68 -172.5t-160 -70.5t-161.5 71.5t-69.5 171.5zM1894 1638q0 97 72 169t166 72q92 0 156.5 -68t64.5 -170q0 -105 -68 -174t-160 -69t-161.5 71.5t-69.5 168.5zM2550 1638q0 97 70.5 169t164.5 72q92 0 156 -68t64 -170q0 -105 -66.5 -174t-163.5 -69 q-92 0 -158.5 71.5t-66.5 168.5z" />
<glyph unicode="Q" horiz-adv-x="4441" d="M655 241q0 97 70.5 170t165.5 73q92 0 156 -68t64 -170q0 -105 -66.5 -175.5t-163.5 -70.5q-92 0 -159 72t-67 169zM1894 243q0 97 72 170t166 73q92 0 156.5 -69t64.5 -171t-68 -174t-160 -72t-161.5 71.5t-69.5 171.5zM1894 942q0 97 72 169t166 72q92 0 156.5 -69.5 t64.5 -171.5t-68 -172.5t-160 -70.5t-161.5 71.5t-69.5 171.5zM1894 1638q0 97 72 169t166 72q92 0 156.5 -68t64.5 -170q0 -105 -68 -174t-160 -69t-161.5 71.5t-69.5 168.5zM2550 942q0 97 70.5 169t164.5 72q92 0 156 -69.5t64 -171.5t-66.5 -172.5t-163.5 -70.5 q-92 0 -158.5 71.5t-66.5 171.5zM2550 1638q0 97 70.5 169t164.5 72q92 0 156 -68t64 -170q0 -105 -66.5 -174t-163.5 -69q-92 0 -158.5 71.5t-66.5 168.5z" />
<glyph unicode="R" horiz-adv-x="4441" d="M655 241q0 97 70.5 170t165.5 73q92 0 156 -68t64 -170q0 -105 -66.5 -175.5t-163.5 -70.5q-92 0 -159 72t-67 169zM1894 243q0 97 72 170t166 73q92 0 156.5 -69t64.5 -171t-68 -174t-160 -72t-161.5 71.5t-69.5 171.5zM1894 942q0 97 72 169t166 72q92 0 156.5 -69.5 t64.5 -171.5t-68 -172.5t-160 -70.5t-161.5 71.5t-69.5 171.5zM1894 1638q0 97 72 169t166 72q92 0 156.5 -68t64.5 -170q0 -105 -68 -174t-160 -69t-161.5 71.5t-69.5 168.5zM2550 942q0 97 70.5 169t164.5 72q92 0 156 -69.5t64 -171.5t-66.5 -172.5t-163.5 -70.5 q-92 0 -158.5 71.5t-66.5 171.5z" />
<glyph unicode="S" horiz-adv-x="4441" d="M655 241q0 97 70.5 170t165.5 73q92 0 156 -68t64 -170q0 -105 -66.5 -175.5t-163.5 -70.5q-92 0 -159 72t-67 169zM1894 243q0 97 72 170t166 73q92 0 156.5 -69t64.5 -171t-68 -174t-160 -72t-161.5 71.5t-69.5 171.5zM1894 942q0 97 72 169t166 72q92 0 156.5 -69.5 t64.5 -171.5t-68 -172.5t-160 -70.5t-161.5 71.5t-69.5 171.5zM2550 1638q0 97 70.5 169t164.5 72q92 0 156 -68t64 -170q0 -105 -66.5 -174t-163.5 -69q-92 0 -158.5 71.5t-66.5 168.5z" />
<glyph unicode="T" horiz-adv-x="4441" d="M655 241q0 97 70.5 170t165.5 73q92 0 156 -68t64 -170q0 -105 -66.5 -175.5t-163.5 -70.5q-92 0 -159 72t-67 169zM1894 243q0 97 72 170t166 73q92 0 156.5 -69t64.5 -171t-68 -174t-160 -72t-161.5 71.5t-69.5 171.5zM1894 942q0 97 72 169t166 72q92 0 156.5 -69.5 t64.5 -171.5t-68 -172.5t-160 -70.5t-161.5 71.5t-69.5 171.5zM2550 942q0 97 70.5 169t164.5 72q92 0 156 -69.5t64 -171.5t-66.5 -172.5t-163.5 -70.5q-92 0 -158.5 71.5t-66.5 171.5zM2550 1638q0 97 70.5 169t164.5 72q92 0 156 -68t64 -170q0 -105 -66.5 -174 t-163.5 -69q-92 0 -158.5 71.5t-66.5 168.5z" />
<glyph unicode="U" horiz-adv-x="4441" d="M655 241q0 97 70.5 170t165.5 73q92 0 156 -68t64 -170q0 -105 -66.5 -175.5t-163.5 -70.5q-92 0 -159 72t-67 169zM1894 243q0 97 72 170t166 73q92 0 156.5 -69t64.5 -171t-68 -174t-160 -72t-161.5 71.5t-69.5 171.5zM1894 1638q0 97 72 169t166 72q92 0 156.5 -68 t64.5 -170q0 -105 -68 -174t-160 -69t-161.5 71.5t-69.5 168.5zM2550 243q0 97 70.5 170t164.5 73q92 0 156 -69t64 -171t-66.5 -174t-163.5 -72q-92 0 -158.5 71.5t-66.5 171.5z" />
<glyph unicode="V" horiz-adv-x="4441" d="M655 241q0 97 70.5 170t165.5 73q92 0 156 -68t64 -170q0 -105 -66.5 -175.5t-163.5 -70.5q-92 0 -159 72t-67 169zM1894 243q0 97 72 170t166 73q92 0 156.5 -69t64.5 -171t-68 -174t-160 -72t-161.5 71.5t-69.5 171.5zM1894 942q0 97 72 169t166 72q92 0 156.5 -69.5 t64.5 -171.5t-68 -172.5t-160 -70.5t-161.5 71.5t-69.5 171.5zM1894 1638q0 97 72 169t166 72q92 0 156.5 -68t64.5 -170q0 -105 -68 -174t-160 -69t-161.5 71.5t-69.5 168.5zM2550 243q0 97 70.5 170t164.5 73q92 0 156 -69t64 -171t-66.5 -174t-163.5 -72 q-92 0 -158.5 71.5t-66.5 171.5z" />
<glyph unicode="W" horiz-adv-x="4441" d="M655 241q0 97 70.5 170t165.5 73q92 0 156 -68t64 -170q0 -105 -66.5 -175.5t-163.5 -70.5q-92 0 -159 72t-67 169zM1894 942q0 97 72 169t166 72q92 0 156.5 -69.5t64.5 -171.5t-68 -172.5t-160 -70.5t-161.5 71.5t-69.5 171.5zM2550 243q0 97 70.5 170t164.5 73 q92 0 156 -69t64 -171t-66.5 -174t-163.5 -72q-92 0 -158.5 71.5t-66.5 171.5zM2550 942q0 97 70.5 169t164.5 72q92 0 156 -69.5t64 -171.5t-66.5 -172.5t-163.5 -70.5q-92 0 -158.5 71.5t-66.5 171.5zM2550 1638q0 97 70.5 169t164.5 72q92 0 156 -68t64 -170 q0 -105 -66.5 -174t-163.5 -69q-92 0 -158.5 71.5t-66.5 168.5z" />
<glyph unicode="X" horiz-adv-x="4441" d="M655 241q0 97 70.5 170t165.5 73q92 0 156 -68t64 -170q0 -105 -66.5 -175.5t-163.5 -70.5q-92 0 -159 72t-67 169zM1894 243q0 97 72 170t166 73q92 0 156.5 -69t64.5 -171t-68 -174t-160 -72t-161.5 71.5t-69.5 171.5zM1894 1638q0 97 72 169t166 72q92 0 156.5 -68 t64.5 -170q0 -105 -68 -174t-160 -69t-161.5 71.5t-69.5 168.5zM2550 243q0 97 70.5 170t164.5 73q92 0 156 -69t64 -171t-66.5 -174t-163.5 -72q-92 0 -158.5 71.5t-66.5 171.5zM2550 1638q0 97 70.5 169t164.5 72q92 0 156 -68t64 -170q0 -105 -66.5 -174t-163.5 -69 q-92 0 -158.5 71.5t-66.5 168.5z" />
<glyph unicode="Y" horiz-adv-x="4441" d="M655 241q0 97 70.5 170t165.5 73q92 0 156 -68t64 -170q0 -105 -66.5 -175.5t-163.5 -70.5q-92 0 -159 72t-67 169zM1894 243q0 97 72 170t166 73q92 0 156.5 -69t64.5 -171t-68 -174t-160 -72t-161.5 71.5t-69.5 171.5zM1894 1638q0 97 72 169t166 72q92 0 156.5 -68 t64.5 -170q0 -105 -68 -174t-160 -69t-161.5 71.5t-69.5 168.5zM2550 243q0 97 70.5 170t164.5 73q92 0 156 -69t64 -171t-66.5 -174t-163.5 -72q-92 0 -158.5 71.5t-66.5 171.5zM2550 942q0 97 70.5 169t164.5 72q92 0 156 -69.5t64 -171.5t-66.5 -172.5t-163.5 -70.5 q-92 0 -158.5 71.5t-66.5 171.5zM2550 1638q0 97 70.5 169t164.5 72q92 0 156 -68t64 -170q0 -105 -66.5 -174t-163.5 -69q-92 0 -158.5 71.5t-66.5 168.5z" />
<glyph unicode="Z" horiz-adv-x="4441" d="M655 241q0 97 70.5 170t165.5 73q92 0 156 -68t64 -170q0 -105 -66.5 -175.5t-163.5 -70.5q-92 0 -159 72t-67 169zM1894 243q0 97 72 170t166 73q92 0 156.5 -69t64.5 -171t-68 -174t-160 -72t-161.5 71.5t-69.5 171.5zM1894 1638q0 97 72 169t166 72q92 0 156.5 -68 t64.5 -170q0 -105 -68 -174t-160 -69t-161.5 71.5t-69.5 168.5zM2550 243q0 97 70.5 170t164.5 73q92 0 156 -69t64 -171t-66.5 -174t-163.5 -72q-92 0 -158.5 71.5t-66.5 171.5zM2550 942q0 97 70.5 169t164.5 72q92 0 156 -69.5t64 -171.5t-66.5 -172.5t-163.5 -70.5 q-92 0 -158.5 71.5t-66.5 171.5z" />
<glyph unicode="a" d="M0 1638q0 97 71.5 169t166.5 72q92 0 156 -68t64 -170q0 -105 -67.5 -174t-160.5 -69q-92 0 -161 71.5t-69 168.5z" />
<glyph unicode="b" d="M0 942q0 97 71.5 169t166.5 72q92 0 156 -69.5t64 -171.5t-67.5 -172.5t-160.5 -70.5q-92 0 -161 71.5t-69 171.5zM0 1638q0 97 71.5 169t166.5 72q92 0 156 -68t64 -170q0 -105 -67.5 -174t-160.5 -69q-92 0 -161 71.5t-69 168.5z" />
<glyph unicode="c" d="M0 1638q0 97 71.5 169t166.5 72q92 0 156 -68t64 -170q0 -105 -67.5 -174t-160.5 -69q-92 0 -161 71.5t-69 168.5zM655 1638q0 97 70.5 169t165.5 72q92 0 156 -68t64 -170q0 -105 -66.5 -174t-163.5 -69q-92 0 -159 71.5t-67 168.5z" />
<glyph unicode="d" d="M0 1638q0 97 71.5 169t166.5 72q92 0 156 -68t64 -170q0 -105 -67.5 -174t-160.5 -69q-92 0 -161 71.5t-69 168.5zM655 942q0 97 70.5 169t165.5 72q92 0 156 -69.5t64 -171.5t-66.5 -172.5t-163.5 -70.5q-92 0 -159 71.5t-67 171.5zM655 1638q0 97 70.5 169t165.5 72 q92 0 156 -68t64 -170q0 -105 -66.5 -174t-163.5 -69q-92 0 -159 71.5t-67 168.5z" />
<glyph unicode="e" d="M0 1638q0 97 71.5 169t166.5 72q92 0 156 -68t64 -170q0 -105 -67.5 -174t-160.5 -69q-92 0 -161 71.5t-69 168.5zM655 942q0 97 70.5 169t165.5 72q92 0 156 -69.5t64 -171.5t-66.5 -172.5t-163.5 -70.5q-92 0 -159 71.5t-67 171.5z" />
<glyph unicode="f" d="M0 942q0 97 71.5 169t166.5 72q92 0 156 -69.5t64 -171.5t-67.5 -172.5t-160.5 -70.5q-92 0 -161 71.5t-69 171.5zM0 1638q0 97 71.5 169t166.5 72q92 0 156 -68t64 -170q0 -105 -67.5 -174t-160.5 -69q-92 0 -161 71.5t-69 168.5zM655 1638q0 97 70.5 169t165.5 72 q92 0 156 -68t64 -170q0 -105 -66.5 -174t-163.5 -69q-92 0 -159 71.5t-67 168.5z" />
<glyph unicode="g" d="M0 942q0 97 71.5 169t166.5 72q92 0 156 -69.5t64 -171.5t-67.5 -172.5t-160.5 -70.5q-92 0 -161 71.5t-69 171.5zM0 1638q0 97 71.5 169t166.5 72q92 0 156 -68t64 -170q0 -105 -67.5 -174t-160.5 -69q-92 0 -161 71.5t-69 168.5zM655 942q0 97 70.5 169t165.5 72 q92 0 156 -69.5t64 -171.5t-66.5 -172.5t-163.5 -70.5q-92 0 -159 71.5t-67 171.5zM655 1638q0 97 70.5 169t165.5 72q92 0 156 -68t64 -170q0 -105 -66.5 -174t-163.5 -69q-92 0 -159 71.5t-67 168.5z" />
<glyph unicode="h" d="M0 942q0 97 71.5 169t166.5 72q92 0 156 -69.5t64 -171.5t-67.5 -172.5t-160.5 -70.5q-92 0 -161 71.5t-69 171.5zM0 1638q0 97 71.5 169t166.5 72q92 0 156 -68t64 -170q0 -105 -67.5 -174t-160.5 -69q-92 0 -161 71.5t-69 168.5zM655 942q0 97 70.5 169t165.5 72 q92 0 156 -69.5t64 -171.5t-66.5 -172.5t-163.5 -70.5q-92 0 -159 71.5t-67 171.5z" />
<glyph unicode="i" d="M0 942q0 97 71.5 169t166.5 72q92 0 156 -69.5t64 -171.5t-67.5 -172.5t-160.5 -70.5q-92 0 -161 71.5t-69 171.5zM655 1638q0 97 70.5 169t165.5 72q92 0 156 -68t64 -170q0 -105 -66.5 -174t-163.5 -69q-92 0 -159 71.5t-67 168.5z" />
<glyph unicode="j" d="M0 942q0 97 71.5 169t166.5 72q92 0 156 -69.5t64 -171.5t-67.5 -172.5t-160.5 -70.5q-92 0 -161 71.5t-69 171.5zM655 942q0 97 70.5 169t165.5 72q92 0 156 -69.5t64 -171.5t-66.5 -172.5t-163.5 -70.5q-92 0 -159 71.5t-67 171.5zM655 1638q0 97 70.5 169t165.5 72 q92 0 156 -68t64 -170q0 -105 -66.5 -174t-163.5 -69q-92 0 -159 71.5t-67 168.5z" />
<glyph unicode="k" d="M0 241q0 97 71.5 170t166.5 73q92 0 156 -68t64 -170q0 -105 -67.5 -175.5t-160.5 -70.5q-92 0 -161 72t-69 169zM0 1638q0 97 71.5 169t166.5 72q92 0 156 -68t64 -170q0 -105 -67.5 -174t-160.5 -69q-92 0 -161 71.5t-69 168.5z" />
<glyph unicode="l" d="M0 241q0 97 71.5 170t166.5 73q92 0 156 -68t64 -170q0 -105 -67.5 -175.5t-160.5 -70.5q-92 0 -161 72t-69 169zM0 942q0 97 71.5 169t166.5 72q92 0 156 -69.5t64 -171.5t-67.5 -172.5t-160.5 -70.5q-92 0 -161 71.5t-69 171.5zM0 1638q0 97 71.5 169t166.5 72 q92 0 156 -68t64 -170q0 -105 -67.5 -174t-160.5 -69q-92 0 -161 71.5t-69 168.5z" />
<glyph unicode="m" d="M0 241q0 97 71.5 170t166.5 73q92 0 156 -68t64 -170q0 -105 -67.5 -175.5t-160.5 -70.5q-92 0 -161 72t-69 169zM0 1638q0 97 71.5 169t166.5 72q92 0 156 -68t64 -170q0 -105 -67.5 -174t-160.5 -69q-92 0 -161 71.5t-69 168.5zM655 1638q0 97 70.5 169t165.5 72 q92 0 156 -68t64 -170q0 -105 -66.5 -174t-163.5 -69q-92 0 -159 71.5t-67 168.5z" />
<glyph unicode="n" d="M0 241q0 97 71.5 170t166.5 73q92 0 156 -68t64 -170q0 -105 -67.5 -175.5t-160.5 -70.5q-92 0 -161 72t-69 169zM0 1638q0 97 71.5 169t166.5 72q92 0 156 -68t64 -170q0 -105 -67.5 -174t-160.5 -69q-92 0 -161 71.5t-69 168.5zM655 942q0 97 70.5 169t165.5 72 q92 0 156 -69.5t64 -171.5t-66.5 -172.5t-163.5 -70.5q-92 0 -159 71.5t-67 171.5zM655 1638q0 97 70.5 169t165.5 72q92 0 156 -68t64 -170q0 -105 -66.5 -174t-163.5 -69q-92 0 -159 71.5t-67 168.5z" />
<glyph unicode="o" d="M0 241q0 97 71.5 170t166.5 73q92 0 156 -68t64 -170q0 -105 -67.5 -175.5t-160.5 -70.5q-92 0 -161 72t-69 169zM0 1638q0 97 71.5 169t166.5 72q92 0 156 -68t64 -170q0 -105 -67.5 -174t-160.5 -69q-92 0 -161 71.5t-69 168.5zM655 942q0 97 70.5 169t165.5 72 q92 0 156 -69.5t64 -171.5t-66.5 -172.5t-163.5 -70.5q-92 0 -159 71.5t-67 171.5z" />
<glyph unicode="p" d="M0 241q0 97 71.5 170t166.5 73q92 0 156 -68t64 -170q0 -105 -67.5 -175.5t-160.5 -70.5q-92 0 -161 72t-69 169zM0 942q0 97 71.5 169t166.5 72q92 0 156 -69.5t64 -171.5t-67.5 -172.5t-160.5 -70.5q-92 0 -161 71.5t-69 171.5zM0 1638q0 97 71.5 169t166.5 72 q92 0 156 -68t64 -170q0 -105 -67.5 -174t-160.5 -69q-92 0 -161 71.5t-69 168.5zM655 1638q0 97 70.5 169t165.5 72q92 0 156 -68t64 -170q0 -105 -66.5 -174t-163.5 -69q-92 0 -159 71.5t-67 168.5z" />
<glyph unicode="q" d="M0 241q0 97 71.5 170t166.5 73q92 0 156 -68t64 -170q0 -105 -67.5 -175.5t-160.5 -70.5q-92 0 -161 72t-69 169zM0 942q0 97 71.5 169t166.5 72q92 0 156 -69.5t64 -171.5t-67.5 -172.5t-160.5 -70.5q-92 0 -161 71.5t-69 171.5zM0 1638q0 97 71.5 169t166.5 72 q92 0 156 -68t64 -170q0 -105 -67.5 -174t-160.5 -69q-92 0 -161 71.5t-69 168.5zM655 942q0 97 70.5 169t165.5 72q92 0 156 -69.5t64 -171.5t-66.5 -172.5t-163.5 -70.5q-92 0 -159 71.5t-67 171.5zM655 1638q0 97 70.5 169t165.5 72q92 0 156 -68t64 -170 q0 -105 -66.5 -174t-163.5 -69q-92 0 -159 71.5t-67 168.5z" />
<glyph unicode="r" d="M0 241q0 97 71.5 170t166.5 73q92 0 156 -68t64 -170q0 -105 -67.5 -175.5t-160.5 -70.5q-92 0 -161 72t-69 169zM0 942q0 97 71.5 169t166.5 72q92 0 156 -69.5t64 -171.5t-67.5 -172.5t-160.5 -70.5q-92 0 -161 71.5t-69 171.5zM0 1638q0 97 71.5 169t166.5 72 q92 0 156 -68t64 -170q0 -105 -67.5 -174t-160.5 -69q-92 0 -161 71.5t-69 168.5zM655 942q0 97 70.5 169t165.5 72q92 0 156 -69.5t64 -171.5t-66.5 -172.5t-163.5 -70.5q-92 0 -159 71.5t-67 171.5z" />
<glyph unicode="s" d="M0 241q0 97 71.5 170t166.5 73q92 0 156 -68t64 -170q0 -105 -67.5 -175.5t-160.5 -70.5q-92 0 -161 72t-69 169zM0 942q0 97 71.5 169t166.5 72q92 0 156 -69.5t64 -171.5t-67.5 -172.5t-160.5 -70.5q-92 0 -161 71.5t-69 171.5zM655 1638q0 97 70.5 169t165.5 72 q92 0 156 -68t64 -170q0 -105 -66.5 -174t-163.5 -69q-92 0 -159 71.5t-67 168.5z" />
<glyph unicode="t" d="M0 241q0 97 71.5 170t166.5 73q92 0 156 -68t64 -170q0 -105 -67.5 -175.5t-160.5 -70.5q-92 0 -161 72t-69 169zM0 942q0 97 71.5 169t166.5 72q92 0 156 -69.5t64 -171.5t-67.5 -172.5t-160.5 -70.5q-92 0 -161 71.5t-69 171.5zM655 942q0 97 70.5 169t165.5 72 q92 0 156 -69.5t64 -171.5t-66.5 -172.5t-163.5 -70.5q-92 0 -159 71.5t-67 171.5zM655 1638q0 97 70.5 169t165.5 72q92 0 156 -68t64 -170q0 -105 -66.5 -174t-163.5 -69q-92 0 -159 71.5t-67 168.5z" />
<glyph unicode="u" d="M0 241q0 97 71.5 170t166.5 73q92 0 156 -68t64 -170q0 -105 -67.5 -175.5t-160.5 -70.5q-92 0 -161 72t-69 169zM0 1638q0 97 71.5 169t166.5 72q92 0 156 -68t64 -170q0 -105 -67.5 -174t-160.5 -69q-92 0 -161 71.5t-69 168.5zM655 241q0 97 70.5 170t165.5 73 q92 0 156 -68t64 -170q0 -105 -66.5 -175.5t-163.5 -70.5q-92 0 -159 72t-67 169z" />
<glyph unicode="v" d="M0 241q0 97 71.5 170t166.5 73q92 0 156 -68t64 -170q0 -105 -67.5 -175.5t-160.5 -70.5q-92 0 -161 72t-69 169zM0 942q0 97 71.5 169t166.5 72q92 0 156 -69.5t64 -171.5t-67.5 -172.5t-160.5 -70.5q-92 0 -161 71.5t-69 171.5zM0 1638q0 97 71.5 169t166.5 72 q92 0 156 -68t64 -170q0 -105 -67.5 -174t-160.5 -69q-92 0 -161 71.5t-69 168.5zM655 241q0 97 70.5 170t165.5 73q92 0 156 -68t64 -170q0 -105 -66.5 -175.5t-163.5 -70.5q-92 0 -159 72t-67 169z" />
<glyph unicode="w" d="M0 942q0 97 71.5 169t166.5 72q92 0 156 -69.5t64 -171.5t-67.5 -172.5t-160.5 -70.5q-92 0 -161 71.5t-69 171.5zM655 241q0 97 70.5 170t165.5 73q92 0 156 -68t64 -170q0 -105 -66.5 -175.5t-163.5 -70.5q-92 0 -159 72t-67 169zM655 942q0 97 70.5 169t165.5 72 q92 0 156 -69.5t64 -171.5t-66.5 -172.5t-163.5 -70.5q-92 0 -159 71.5t-67 171.5zM655 1638q0 97 70.5 169t165.5 72q92 0 156 -68t64 -170q0 -105 -66.5 -174t-163.5 -69q-92 0 -159 71.5t-67 168.5z" />
<glyph unicode="x" d="M0 241q0 97 71.5 170t166.5 73q92 0 156 -68t64 -170q0 -105 -67.5 -175.5t-160.5 -70.5q-92 0 -161 72t-69 169zM0 1638q0 97 71.5 169t166.5 72q92 0 156 -68t64 -170q0 -105 -67.5 -174t-160.5 -69q-92 0 -161 71.5t-69 168.5zM655 241q0 97 70.5 170t165.5 73 q92 0 156 -68t64 -170q0 -105 -66.5 -175.5t-163.5 -70.5q-92 0 -159 72t-67 169zM655 1638q0 97 70.5 169t165.5 72q92 0 156 -68t64 -170q0 -105 -66.5 -174t-163.5 -69q-92 0 -159 71.5t-67 168.5z" />
<glyph unicode="y" d="M0 241q0 97 71.5 170t166.5 73q92 0 156 -68t64 -170q0 -105 -67.5 -175.5t-160.5 -70.5q-92 0 -161 72t-69 169zM0 1638q0 97 71.5 169t166.5 72q92 0 156 -68t64 -170q0 -105 -67.5 -174t-160.5 -69q-92 0 -161 71.5t-69 168.5zM655 241q0 97 70.5 170t165.5 73 q92 0 156 -68t64 -170q0 -105 -66.5 -175.5t-163.5 -70.5q-92 0 -159 72t-67 169zM655 942q0 97 70.5 169t165.5 72q92 0 156 -69.5t64 -171.5t-66.5 -172.5t-163.5 -70.5q-92 0 -159 71.5t-67 171.5zM655 1638q0 97 70.5 169t165.5 72q92 0 156 -68t64 -170 q0 -105 -66.5 -174t-163.5 -69q-92 0 -159 71.5t-67 168.5z" />
<glyph unicode="z" d="M0 241q0 97 71.5 170t166.5 73q92 0 156 -68t64 -170q0 -105 -67.5 -175.5t-160.5 -70.5q-92 0 -161 72t-69 169zM0 1638q0 97 71.5 169t166.5 72q92 0 156 -68t64 -170q0 -105 -67.5 -174t-160.5 -69q-92 0 -161 71.5t-69 168.5zM655 241q0 97 70.5 170t165.5 73 q92 0 156 -68t64 -170q0 -105 -66.5 -175.5t-163.5 -70.5q-92 0 -159 72t-67 169zM655 942q0 97 70.5 169t165.5 72q92 0 156 -69.5t64 -171.5t-66.5 -172.5t-163.5 -70.5q-92 0 -159 71.5t-67 171.5z" />
<glyph unicode="&#xad;" d="M0 241q0 97 71.5 170t166.5 73q92 0 156 -68t64 -170q0 -105 -67.5 -175.5t-160.5 -70.5q-92 0 -161 72t-69 169zM655 241q0 97 70.5 170t165.5 73q92 0 156 -68t64 -170q0 -105 -66.5 -175.5t-163.5 -70.5q-92 0 -159 72t-67 169z" />
<glyph unicode="&#x2000;" horiz-adv-x="941" />
<glyph unicode="&#x2001;" horiz-adv-x="1882" />
<glyph unicode="&#x2002;" horiz-adv-x="941" />
<glyph unicode="&#x2003;" horiz-adv-x="1882" />
<glyph unicode="&#x2004;" horiz-adv-x="627" />
<glyph unicode="&#x2005;" horiz-adv-x="470" />
<glyph unicode="&#x2006;" horiz-adv-x="313" />
<glyph unicode="&#x2007;" horiz-adv-x="313" />
<glyph unicode="&#x2008;" horiz-adv-x="235" />
<glyph unicode="&#x2009;" horiz-adv-x="376" />
<glyph unicode="&#x200a;" horiz-adv-x="104" />
<glyph unicode="&#x2010;" d="M0 241q0 97 71.5 170t166.5 73q92 0 156 -68t64 -170q0 -105 -67.5 -175.5t-160.5 -70.5q-92 0 -161 72t-69 169zM655 241q0 97 70.5 170t165.5 73q92 0 156 -68t64 -170q0 -105 -66.5 -175.5t-163.5 -70.5q-92 0 -159 72t-67 169z" />
<glyph unicode="&#x2011;" d="M0 241q0 97 71.5 170t166.5 73q92 0 156 -68t64 -170q0 -105 -67.5 -175.5t-160.5 -70.5q-92 0 -161 72t-69 169zM655 241q0 97 70.5 170t165.5 73q92 0 156 -68t64 -170q0 -105 -66.5 -175.5t-163.5 -70.5q-92 0 -159 72t-67 169z" />
<glyph unicode="&#x2012;" d="M0 241q0 97 71.5 170t166.5 73q92 0 156 -68t64 -170q0 -105 -67.5 -175.5t-160.5 -70.5q-92 0 -161 72t-69 169zM655 241q0 97 70.5 170t165.5 73q92 0 156 -68t64 -170q0 -105 -66.5 -175.5t-163.5 -70.5q-92 0 -159 72t-67 169z" />
<glyph unicode="&#x2013;" horiz-adv-x="1807" d="M0 241q0 97 66 170t153 73q85 0 144 -68t59 -170q0 -105 -62 -175.5t-148 -70.5q-85 0 -148.5 72t-63.5 169zM604 241q0 97 65 170t152 73q85 0 144 -68t59 -170q0 -105 -61.5 -175.5t-150.5 -70.5q-85 0 -146.5 72t-61.5 169z" />
<glyph unicode="&#x2014;" horiz-adv-x="2831" d="M0 241q0 97 132 170t307 73q169 0 287 -68t118 -170q0 -105 -124.5 -175.5t-295.5 -70.5q-170 0 -297 72t-127 169zM1207 241q0 97 130 170t305 73q170 0 288 -68t118 -170q0 -105 -122.5 -175.5t-301.5 -70.5q-170 0 -293.5 72t-123.5 169z" />
<glyph unicode="&#x202f;" horiz-adv-x="376" />
<glyph unicode="&#x205f;" horiz-adv-x="470" />
<glyph unicode="&#xe000;" horiz-adv-x="1881" d="M0 0v1882h1882v-1882h-1882z" />
</font>
</defs>
</svg>
